HIERARCHY
ROOT Pelvis
{
	OFFSET 0.000000 0.000000 0.000000
	CHANNELS 6 Xposition Yposition Zposition Xrotation Yrotation Zrotation
	JOINT LeftUpLeg_virtual
	{
		OFFSET 0.000000 0.000000 0.000000
		CHANNELS 3 Xrotation Yrotation Zrotation
		JOINT LeftUpLeg
		{
			OFFSET 18.735201 -5.666702 -4.541200
			CHANNELS 3 Xrotation Yrotation Zrotation
			JOINT LeftLeg
			{
				OFFSET -0.021200 -31.938179 0.493100
				CHANNELS 3 Xrotation Yrotation Zrotation
				JOINT LeftFoot
				{
					OFFSET 0.021200 -31.938179 -4.336299
					CHANNELS 3 Xrotation Yrotation Zrotation
					JOINT LeftToeBase
					{
						OFFSET 0.943001 -26.722000 15.023500
						CHANNELS 3 Xrotation Yrotation Zrotation
						End Site
						{
							OFFSET 0 0 0
						}
					}
				}
			}
		}
	}
	JOINT RightUpLeg_virtual
	{
		OFFSET 0.000000 0.000000 0.000000
		CHANNELS 3 Xrotation Yrotation Zrotation
		JOINT RightUpLeg
		{
			OFFSET -18.735201 -5.666702 -4.541200
			CHANNELS 3 Xrotation Yrotation Zrotation
			JOINT RightLeg
			{
				OFFSET 0.018946 -31.938133 0.493100
				CHANNELS 3 Xrotation Yrotation Zrotation
				JOINT RightFoot
				{
					OFFSET -0.018946 -31.938126 -4.336299
					CHANNELS 3 Xrotation Yrotation Zrotation
					JOINT RightToeBase
					{
						OFFSET -0.943001 -26.722004 15.023500
						CHANNELS 3 Xrotation Yrotation Zrotation
						End Site
						{
							OFFSET 0 0 0
						}
					}
				}
			}
		}
	}
	JOINT Hips_virtual
	{
		OFFSET 0.000000 0.000000 0.000000
		CHANNELS 3 Xrotation Yrotation Zrotation
		JOINT Hips
		{
			OFFSET -0.000000 -0.000000 -0.000000
			CHANNELS 3 Xrotation Yrotation Zrotation
			JOINT Spine
			{
				OFFSET 0.000000 10.199997 -0.299500
				CHANNELS 3 Xrotation Yrotation Zrotation
				JOINT Spine1
				{
					OFFSET 0.000000 11.900002 -1.516600
					CHANNELS 3 Xrotation Yrotation Zrotation
					JOINT Spine2
					{
						OFFSET 0.000000 13.600006 -2.842500
						CHANNELS 3 Xrotation Yrotation Zrotation
						JOINT Neck_virtual
						{
							OFFSET 0.000000 0.000000 0.000000
							CHANNELS 3 Xrotation Yrotation Zrotation
							JOINT Neck
							{
								OFFSET 0.000000 9.624100 -2.890100
								CHANNELS 3 Xrotation Yrotation Zrotation
								JOINT Head
								{
									OFFSET 0.000000 14.068802 -1.351900
									CHANNELS 3 Xrotation Yrotation Zrotation
									End Site
									{
										OFFSET 0 0 0
									}
								}
							}
						}
						JOINT LeftShoulder_virtual
						{
							OFFSET 0.000000 0.000000 0.000000
							CHANNELS 3 Xrotation Yrotation Zrotation
							JOINT LeftShoulder
							{
								OFFSET 15.263000 10.923401 -0.547700
								CHANNELS 3 Xrotation Yrotation Zrotation
								JOINT LeftArm
								{
									OFFSET 25.438599 -2.830597 -13.032500
									CHANNELS 3 Xrotation Yrotation Zrotation
									JOINT LeftForeArm
									{
										OFFSET 29.960503 0.000000 0.000000
										CHANNELS 3 Xrotation Yrotation Zrotation
										JOINT LeftHand
										{
											OFFSET 27.849251 0.000000 0.000000
											CHANNELS 3 Xrotation Yrotation Zrotation
											End Site
											{
												OFFSET 0 0 0
											}
										}
									}
								}
							}
						}
						JOINT RightShoulder_virtual
						{
							OFFSET 0.000000 0.000000 0.000000
							CHANNELS 3 Xrotation Yrotation Zrotation
							JOINT RightShoulder
							{
								OFFSET -15.263000 10.923401 -0.547700
								CHANNELS 3 Xrotation Yrotation Zrotation
								JOINT RightArm
								{
									OFFSET -25.438599 -2.830597 -13.032500
									CHANNELS 3 Xrotation Yrotation Zrotation
									JOINT RightForeArm
									{
										OFFSET -29.960503 0.000000 0.000000
										CHANNELS 3 Xrotation Yrotation Zrotation
										JOINT RightHand
										{
											OFFSET -27.849251 0.000000 0.000000
											CHANNELS 3 Xrotation Yrotation Zrotation
											End Site
											{
												OFFSET 0 0 0
											}
										}
									}
								}
							}
						}
					}
				}
			}
		}
	}
}
MOTION
Frames: 5
Frame Time: 0.03333333
-23.674812 129.200851 36.603260 0.000000 0.000000 0.000000 1.982017 -19.345189 2.004196 -30.477981 8.881274 4.647678 39.469843 7.849814 4.015464 31.919564 -0.470053 -2.691489 0.000000 0.000000 0.000000 1.982017 -19.345189 2.004196 -6.161880 -7.012220 -5.266463 16.159331 -22.009310 3.378010 40.499228 -3.265480 -3.227085 0.000000 0.000000 0.000000 1.982017 -19.345189 2.004196 0.000000 0.000002 0.000000 -1.424078 -0.101585 -0.871765 -2.849546 -0.229106 -1.624431 0.000000 0.000000 0.000000 -2.849545 -0.229103 -1.624431 -5.483484 0.394935 -0.159990 0.000000 0.000000 0.000000 -2.849545 -0.229103 -1.624431 4.781806 6.071383 25.311125 -58.312767 -25.193206 16.875552 -25.969899 -55.829597 7.584444 0.000000 0.000000 0.000000 -2.849545 -0.229103 -1.624431 -3.148150 -6.622060 -28.188293 -74.921165 31.517252 20.078724 -28.646426 45.441095 -7.798834 0.000000 0.000000 0.000000 
-23.889153 126.356094 37.996712 0.000000 0.000000 0.000000 1.244089 -17.613683 1.344871 -32.046886 8.351338 4.412599 40.324884 11.540283 2.919294 38.396284 0.425118 1.324808 0.000000 0.000000 0.000000 1.244089 -17.613683 1.344871 -9.703808 -6.744434 -5.619101 18.164265 -19.757145 1.945238 46.245175 -1.821707 -3.809845 0.000000 0.000000 0.000000 1.244089 -17.613683 1.344871 0.000000 -0.000001 0.000000 -1.645555 -0.118993 -0.671007 -3.292605 -0.278829 -1.303055 0.000000 0.000000 0.000000 -3.292605 -0.278820 -1.303055 -4.972349 0.277719 -0.632051 0.000000 0.000000 0.000000 -3.292605 -0.278820 -1.303055 6.717991 6.329316 27.810083 -55.092589 -13.574172 10.508928 -20.928101 -71.280127 15.947211 0.000000 0.000000 0.000000 -3.292605 -0.278820 -1.303055 -0.962622 -3.617259 -26.818757 -63.904268 30.681124 10.710914 -28.415945 46.120391 -0.431034 0.000000 0.000000 0.000000 
-24.103539 123.502998 39.412952 0.000000 0.000000 0.000000 0.343560 -15.302636 0.704516 -32.829714 7.990249 4.481910 41.346895 14.304830 1.297966 42.264715 1.903749 5.406840 0.000000 0.000000 0.000000 0.343560 -15.302636 0.704516 -11.700146 -7.328895 -6.153374 19.899910 -15.978808 1.108216 50.119358 -1.085172 -1.646071 0.000000 0.000000 0.000000 0.343560 -15.302636 0.704516 0.000000 0.000000 0.000000 -2.033639 -0.036587 -0.365058 -4.067670 -0.134288 -0.708513 0.000000 0.000000 0.000000 -4.067670 -0.134280 -0.708512 -4.812980 0.298621 -1.113123 0.000000 0.000000 0.000000 -4.067670 -0.134280 -0.708512 7.397604 6.276441 30.124778 -50.546221 -14.728026 7.822474 -23.333314 -64.851663 15.435908 0.000000 0.000000 0.000000 -4.067670 -0.134280 -0.708512 0.236021 -5.224690 -28.113369 -56.133790 28.750059 7.183376 -28.925650 47.084770 12.393172 0.000000 0.000000 0.000000 
-24.323219 121.214523 40.874687 0.000000 0.000000 0.000000 -0.461423 -12.560010 0.254814 -33.156006 8.032562 3.394103 41.776336 15.862454 2.056803 43.711302 2.584144 7.407978 0.000000 0.000000 0.000000 -0.461423 -12.560010 0.254814 -12.057575 -7.232060 -6.301619 20.941396 -15.092732 0.592142 51.944613 -0.113379 0.555760 0.000000 0.000000 0.000000 -0.461423 -12.560010 0.254814 0.000000 0.000000 0.000000 -2.519984 0.010093 -0.131827 -5.040000 -0.061266 -0.169479 0.000000 0.000000 0.000000 -5.039998 -0.061264 -0.169479 -4.777941 0.191854 -1.171141 0.000000 0.000000 0.000000 -5.039998 -0.061264 -0.169479 7.348066 6.827391 32.197652 -50.084363 -16.986062 5.313357 -25.169455 -57.653640 7.865927 0.000000 0.000000 0.000000 -5.039998 -0.061264 -0.169479 -1.010191 -6.529069 -31.967853 -55.410842 34.083156 9.550122 -24.192429 35.946924 6.614260 0.000000 0.000000 0.000000 
-24.565483 119.711761 42.391327 0.000000 0.000000 0.000000 -0.954025 -9.728002 0.116044 -33.328670 9.072093 3.623629 42.509199 15.310156 1.254096 42.709719 3.100293 9.506196 0.000000 0.000000 0.000000 -0.954025 -9.728002 0.116044 -11.371854 -7.077497 -6.677887 21.247009 -15.958640 1.426002 52.410565 0.195304 1.404880 0.000000 0.000000 0.000000 -0.954025 -9.728002 0.116044 0.000000 0.000000 0.000000 -3.029644 0.038649 -0.120113 -6.059362 -0.019087 0.004834 0.000000 0.000000 0.000000 -6.059357 -0.019085 0.004834 -4.781600 0.118339 -0.940923 0.000000 0.000000 0.000000 -6.059357 -0.019085 0.004834 6.152874 8.048886 34.407679 -51.875140 -22.068703 0.441654 -23.786832 -48.661860 4.290980 0.000000 0.000000 0.000000 -6.059357 -0.019085 0.004834 -0.117884 -7.940963 -34.996516 -60.812733 37.491861 15.540540 -22.381152 26.520356 1.242625 0.000000 0.000000 0.000000 
